<svg width="79" height="20" viewBox="0 0 79 20" fill="none" xmlns="http://www.w3.org/2000/svg">
<path d="M2.16779 0L8.69931 10.7606L15.2871 0H17.4268L9.68466 12.5634V20H7.71395V12.507L0 0H2.16779Z" fill="white"/>
<path d="M24.3599 0H26.0209L34.3261 20H32.2428L29.6527 13.7465H20.6718L18.1099 20H15.9984L24.3599 0ZM29.2022 12.1972L25.1763 2.30986L21.0941 12.1972H29.2022Z" fill="white"/>
<path d="M39.1623 3.6338V20H37.1916V0H38.8244L51.9438 16.6761V0.0281685H53.9145V20H52.0845L39.1623 3.6338Z" fill="white"/>
<path d="M58.9387 20V0.0281685H60.9094V11.6338L71.9173 0H74.0851L65.9207 8.78873L74.5074 20H72.2833L64.6538 9.97183L60.9094 13.8592V20H58.9387Z" fill="white"/>
<path d="M77.0293 20V0H79V20H77.0293Z" fill="white"/>
</svg>
